<?xml version="1.0" encoding="utf-8"?>
<!-- Generator: Adobe Illustrator 24.1.1, SVG Export Plug-In . SVG Version: 6.00 Build 0)  -->
<svg version="1.1" id="Layer_1" xmlns="http://www.w3.org/2000/svg" xmlns:xlink="http://www.w3.org/1999/xlink" x="0px" y="0px"
	 width="443.4px" height="343.6px" viewBox="0 0 443.4 343.6" style="enable-background:new 0 0 443.4 343.6;" xml:space="preserve"
	>
<style type="text/css">
	.st0{fill:#F2B1C1;}
	.st1{fill:#23A263;}
	.st2{fill:#FAF9FB;}
	.st3{fill:#EE3D1E;}
	.st4{fill:#FF3EAD;}
	.st5{fill:#CA096D;}
	.st6{fill:#4B4C63;}
	.st7{opacity:0.32;fill:#FFFFFF;enable-background:new    ;}
	.st8{fill:#21FFA3;}
	.st9{fill:#1EBBF0;}
	.st10{fill:#09CC7A;}
	.st11{fill:#B3B3B3;}
	.st12{clip-path:url(#SVGID_2_);fill:#FF243E;}
	.st13{clip-path:url(#SVGID_5_);fill:#FAF9FB;}
	.st14{clip-path:url(#SVGID_7_);fill:#FF243E;}
	.st15{clip-path:url(#SVGID_9_);fill:#FAF9FB;}
	.st16{clip-path:url(#SVGID_11_);fill:#FF243E;}
	.st17{fill:#FF243E;}
	.st18{fill:#FF6969;}
	.st19{clip-path:url(#SVGID_13_);fill:#E7E7E5;}
	.st20{fill:#1088D7;}
	.st21{fill:#FFFFFF;}
	.st22{fill:#E6EAED;}
	.st23{clip-path:url(#SVGID_15_);fill:#0E76BB;}
	.st24{clip-path:url(#SVGID_17_);fill:#E7E7E5;}
	.st25{clip-path:url(#SVGID_19_);fill:#E6EAED;}
	.st26{fill:url(#SVGID_20_);}
	.st27{fill:#FEC4AD;}
	.st28{fill:#4097A5;}
	.st29{fill:url(#SVGID_21_);}
	.st30{fill:#D8AA9A;}
	.st31{fill:url(#SVGID_22_);}
	.st32{fill:url(#SVGID_23_);}
	.st33{fill:url(#SVGID_24_);}
	.st34{fill:url(#SVGID_25_);}
	.st35{fill:#97A3CC;}
	.st36{fill:#FF3A46;}
	.st37{fill:#A6AEBA;}
	.st38{fill:#613531;}
	.st39{fill:#FF1F94;}
	.st40{fill:#FF7D7D;}
	.st41{fill:#F3BA40;}
	.st42{fill:#789AA9;}
	.st43{fill:#536A73;}
	.st44{fill:#23232E;}
	.st45{fill:#FF1912;}
	.st46{fill:none;stroke:#FF1912;stroke-width:0.8203;stroke-miterlimit:10;}
	.st47{fill:#C40202;}
	.st48{clip-path:url(#SVGID_27_);}
	.st49{fill:#49C3FF;}
	.st50{fill:#5657E5;}
	.st51{fill:#378FBB;}
	.st52{fill:#3CD756;}
	.st53{clip-path:url(#SVGID_29_);fill:#3F9371;}
	.st54{clip-path:url(#SVGID_31_);fill:#E7E7E5;}
	.st55{fill:#282C3B;}
	.st56{fill:#133A50;}
	.st57{fill:#F8C9A5;}
	.st58{fill:#D2DCEB;}
	.st59{fill:#BF7D60;}
	.st60{fill:#B0664F;}
	.st61{fill:#E59971;}
	.st62{fill:#414686;}
	.st63{fill:#EBD0E7;}
	.st64{fill:#847089;}
	.st65{fill:#6A536D;}
	.st66{fill:#A6563D;}
	.st67{fill:#9F441F;}
	.st68{fill:#BF8166;}
</style>
<g id="OBJECTS">
	<ellipse class="st0" cx="220" cy="331.1" rx="220" ry="12.5"/>
	<g>
		<g>
			<rect x="314.2" y="192" class="st1" width="75" height="4.6"/>
			<rect x="311.4" y="192.9" class="st2" width="75" height="4.6"/>
			<polygon class="st2" points="367.5,198.2 387.1,329.9 409.3,323.6 389.2,192.1 			"/>
			<polygon class="st1" points="370.7,197.2 367.5,198.2 387.6,330 390.7,329.2 			"/>
			<polygon class="st1" points="386.3,193 406.1,324.6 409.3,323.6 389.2,192.1 			"/>
			<polygon class="st1" points="367.4,198.1 304,199.7 327.6,327.2 387.6,330 			"/>
			<polygon class="st2" points="321.2,257 317.2,231.2 365,229.4 369,255.4 			"/>
		</g>
		<g>
			<rect x="287.2" y="192" class="st3" width="75" height="4.6"/>
			<rect x="284.3" y="192.9" class="st2" width="75" height="4.6"/>
			<polygon class="st2" points="340.6,198.2 360,329.9 382.2,323.6 362.1,192.1 			"/>
			<polygon class="st4" points="359.4,193 379,324.6 382.2,323.6 362.1,192.1 			"/>
			<polygon class="st3" points="340.6,198.1 276.9,199.7 300.6,327.2 360.5,330 			"/>
			<polygon class="st5" points="342.7,197.4 279,199 302.9,326.5 362.8,329.4 			"/>
			<polygon class="st2" points="294.1,257 290.1,231.2 337.9,229.4 341.9,255.4 			"/>
		</g>
		<g>
			<g>
				<path class="st6" d="M350.8,176.5c-1.2,2.9-6.5,15.8-7.2,18.5c-0.9,2.6,4.2,1.4,5.7-0.2c1.7-2,1.5-3.7,2.9-7.1
					c2.2-5.5,2.6-7.1,4.2-8.2c1.1-0.7,11-2.2,13.5-2.6c2.6-0.2,4.9-2.2,8.1-3.1c3.1-0.9,9.1-1.7,9.1-1.7l-0.2-3.7
					c0,0-15.1,2-25.3,4.2C354.2,173.9,351.3,175.5,350.8,176.5z"/>
			</g>
			<g>
				<path class="st6" d="M323.8,176.5c1.2,2.9,6.5,15.8,7.2,18.5c0.9,2.6-4.2,1.4-5.7-0.2c-1.7-2-1.5-3.7-2.9-7.1
					c-2.2-5.5-2.6-7.1-4.2-8.2c-1.1-0.7-11-2.2-13.5-2.6c-2.6-0.2-4.9-2.2-8.1-3.1c-3.1-0.9-9.1-1.7-9.1-1.7l0.2-3.7
					c0,0,15.1,2,25.3,4.2C320.5,173.9,323.5,175.5,323.8,176.5z"/>
			</g>
			<g>
				<path class="st6" d="M285.8,169.2v3.1c0,0.6,0.4,1.2,0.9,1.6c1.4,1,2.6,3.1,3,4.2c0.7,1.9,3.4,11.7,8.2,15.2
					c4.9,3.5,20,2.7,23.8,1.1c8.9-3.6,10.9-18.3,12.2-19.1c1.4-0.9,4.1-0.9,5.4,0c1.4,0.9,3.6,15.5,12.5,19c4,1.5,19.1,2,23.8-1.5
					c4.7-3.6,7.2-13.6,8-15.5c0.2-0.9,1.5-3.1,3-4.2c0.5-0.4,0.9-1,0.9-1.6v-3.1c0-1-0.9-1.9-1.9-2c-6.9-0.4-25.8-2.1-41.8,0.9
					c-0.9,0.2-1.7,0.2-2.6,0.5c-3.1,0.6-6.2,0.6-9.4,0.1c-0.9-0.1-1.7-0.2-2.6-0.4c-16-2.7-34.9-0.9-41.8-0.2
					C286.4,167.2,285.8,168,285.8,169.2z M343.7,172.7c0.7-2.5,1.7-3,9-3.9s25.2-1.2,27.2,2c1,1.6,1.6,7.6-2,15.7
					c-3.7,8.2-13.2,7.2-18.5,7.1c-6.9-0.1-9.7-2.6-12-7.1C345,182,342.8,175.4,343.7,172.7z M293.3,171.3c2-3.1,19.8-3.1,27.1-2.4
					c7.2,0.9,8.2,1.4,9.1,3.7c0.9,2.7-1.1,9.4-3.4,14c-2.1,4.5-5.1,7-11.9,7.2c-5.4,0.2-14.8,1.2-18.6-7
					C291.8,178.9,292.3,172.9,293.3,171.3z"/>
				<path class="st7" d="M320.5,168.9c7.2,0.9,8.2,1.4,9.1,3.7c0.9,2.7-1.1,9.4-3.4,14c-2.1,4.5-5.1,7-11.9,7.2
					c-5.4,0.2-14.8,1.2-18.6-7c-3.7-8.1-3.2-14.1-2.4-15.6C295.3,168.2,313.2,168.2,320.5,168.9z"/>
				<path class="st7" d="M352.7,168.8c7.2-0.9,25.2-1.2,27.2,2c1,1.6,1.6,7.6-2,15.7c-3.7,8.2-13.2,7.2-18.5,7.1
					c-6.9-0.1-9.7-2.6-12-7.1c-2.2-4.5-4.4-11.1-3.6-14C344.4,170.2,345.4,169.7,352.7,168.8z"/>
			</g>
		</g>
		<g>
			<g>
				<g>
					<polygon class="st2" points="290.4,182.4 289.8,329.6 313.4,329.6 313.4,182.4 					"/>
					<polygon class="st8" points="294.4,182.4 290.4,182.4 290.4,330 294.4,330 					"/>
					<polygon class="st8" points="309.7,182.4 309.1,329.6 313.4,329.6 313.4,182.4 					"/>
					<rect x="209.2" y="182.3" class="st9" width="81.1" height="147.7"/>
					<rect x="209.2" y="182.3" class="st10" width="81.1" height="147.7"/>
					<rect x="220.3" y="197" class="st11" width="60.5" height="121.9"/>
				</g>
			</g>
		</g>
	</g>
	<g>
		<g>
			<g>
				<g>
					<g>
						<defs>
							<path id="SVGID_1_" d="M46.5,330.1v-42.2h192.9c5.6,0,10.2,4.6,10.2,10.2v21.7c0,5.6-4.6,10.2-10.2,10.2L46.5,330.1
								L46.5,330.1z"/>
						</defs>
						<clipPath id="SVGID_2_">
							<use xlink:href="#SVGID_1_"  style="overflow:visible;"/>
						</clipPath>
						<path class="st12" d="M46.5,330.1v-42.2h195.1c4.5,0,8.1,3.6,8.1,8.1v26c0,4.5-3.6,8.1-8.1,8.1H46.5L46.5,330.1z"/>
					</g>
				</g>
			</g>
			<g>
				<g>
					<g>
						<defs>
							<path id="SVGID_4_" d="M46.5,330.1v-42.2h192.9c5.6,0,10.2,4.6,10.2,10.2v21.7c0,5.6-4.6,10.2-10.2,10.2L46.5,330.1
								L46.5,330.1z"/>
						</defs>
						<clipPath id="SVGID_5_">
							<use xlink:href="#SVGID_4_"  style="overflow:visible;"/>
						</clipPath>
						<path class="st13" d="M35.5,330.1v-42.2h193c5.6,0,10.2,4.6,10.2,10.2v21.8c0,5.6-4.6,10.2-10.2,10.2H35.5L35.5,330.1z"/>
					</g>
				</g>
			</g>
			<g>
				<g>
					<g>
						<defs>
							<path id="SVGID_6_" d="M46.5,330.1v-42.2h192.9c5.6,0,10.2,4.6,10.2,10.2v21.7c0,5.6-4.6,10.2-10.2,10.2L46.5,330.1
								L46.5,330.1z"/>
						</defs>
						<clipPath id="SVGID_7_">
							<use xlink:href="#SVGID_6_"  style="overflow:visible;"/>
						</clipPath>
						<path class="st14" d="M24.5,330.1v-42.2h194c5,0,9.1,4.1,9.1,9.1v24c0,5-4.1,9.1-9.1,9.1H24.5L24.5,330.1z"/>
					</g>
				</g>
			</g>
			<g>
				<g>
					<g>
						<defs>
							<path id="SVGID_8_" d="M46.5,330.1v-42.2h192.9c5.6,0,10.2,4.6,10.2,10.2v21.7c0,5.6-4.6,10.2-10.2,10.2L46.5,330.1
								L46.5,330.1z"/>
						</defs>
						<clipPath id="SVGID_9_">
							<use xlink:href="#SVGID_8_"  style="overflow:visible;"/>
						</clipPath>
						<path class="st15" d="M-4.3,330.1v-42.2h165.8c5.6,0,10.2,4.6,10.2,10.2v21.8c0,5.6-4.6,10.2-10.2,10.2H-4.3L-4.3,330.1z"/>
					</g>
				</g>
			</g>
			<g>
				<g>
					<g>
						<defs>
							<path id="SVGID_10_" d="M46.5,330.1v-42.2h192.9c5.6,0,10.2,4.6,10.2,10.2v21.7c0,5.6-4.6,10.2-10.2,10.2L46.5,330.1
								L46.5,330.1z"/>
						</defs>
						<clipPath id="SVGID_11_">
							<use xlink:href="#SVGID_10_"  style="overflow:visible;"/>
						</clipPath>
						<path class="st16" d="M-15.3,330.1v-42.2h166.8c5,0,9.1,4.1,9.1,9.1v24c0,5-4.1,9.1-9.1,9.1H-15.3L-15.3,330.1z"/>
					</g>
				</g>
			</g>
		</g>
		<g>
			<g>
				<path id="SVGID_3_" class="st17" d="M25,330.1v-42.2h108.4c5.6,0,10.2,4.6,10.2,10.2v21.7c0,5.6-4.6,10.2-10.2,10.2L25,330.1
					L25,330.1z"/>
			</g>
			<g>
				<g>
					<rect x="25" y="287.9" class="st18" width="118.6" height="42.2"/>
				</g>
			</g>
		</g>
		<g>
			<g>
				<g>
					<g>
						<defs>
							<path id="SVGID_12_" d="M137.8,325.7h-106c-3.7,0-6.9-3.1-6.9-6.9v-19.1c0-3.7,3.1-6.9,6.9-6.9H138v32.8h-0.2V325.7z"/>
						</defs>
						<clipPath id="SVGID_13_">
							<use xlink:href="#SVGID_12_"  style="overflow:visible;"/>
						</clipPath>
						<path class="st19" d="M36,293.1h90.8c6.1,0,11.1,5,11.1,11.1v10.4c0,6.1-5,11.1-11.1,11.1H36c-6.1,0-11.1-5-11.1-11.1v-10.4
							C24.9,298,29.9,293.1,36,293.1z"/>
					</g>
				</g>
			</g>
		</g>
	</g>
	<g>
		<path class="st20" d="M224.4,287.6H67.9c-1.9,0-3.4-1.5-3.4-3.4v-31.7c0-1.9,1.5-3.4,3.4-3.4h156.3v38.4h0.2V287.6z"/>
		<path class="st21" d="M207.3,279.7H83.8c-1.2,0-2.2-1-2.2-2.2v-16.3c0-1.2,1-2.2,2.2-2.2h123.4L207.3,279.7L207.3,279.7z"/>
		<path class="st22" d="M224.4,261.4h-158c-1,0-2-0.9-2-2v-8.5c0-1,0.9-2,2-2h158V261.4z"/>
		<g>
			<g>
				<g>
					<g>
						<defs>
							<path id="SVGID_14_" d="M232.1,301.7h38.4v-63.3c0-2-1.6-3.7-3.7-3.7h-31.1c-2,0-3.7,1.6-3.7,3.7v63.3H232.1z"/>
						</defs>
						<clipPath id="SVGID_15_">
							<use xlink:href="#SVGID_14_"  style="overflow:visible;"/>
						</clipPath>
						<rect x="217.9" y="249" class="st23" width="66.9" height="38.4"/>
					</g>
				</g>
			</g>
		</g>
		<g>
			<g>
				<g>
					<g>
						<defs>
							<path id="SVGID_16_" d="M284.9,252.1h-61.3c-0.9,0-1.7,0.9-1.7,1.7v28.9c0,0.9,0.9,1.7,1.7,1.7h61.3V252.1z"/>
						</defs>
						<clipPath id="SVGID_17_">
							<use xlink:href="#SVGID_16_"  style="overflow:visible;"/>
						</clipPath>
						<rect x="221.9" y="252.1" class="st24" width="62.9" height="32.4"/>
					</g>
				</g>
			</g>
			<g>
				<g>
					<g>
						<defs>
							<path id="SVGID_18_" d="M284.9,252.1h-61.3c-0.9,0-1.7,0.9-1.7,1.7v28.9c0,0.9,0.9,1.7,1.7,1.7h61.3V252.1z"/>
						</defs>
						<clipPath id="SVGID_19_">
							<use xlink:href="#SVGID_18_"  style="overflow:visible;"/>
						</clipPath>
						<path class="st25" d="M284.9,252.1h-61.3c-0.9,0-1.7,0.9-1.7,1.7v28.9c0,0.9,0.9-20.7,1.7-20.7h61.3V252.1z"/>
					</g>
				</g>
			</g>
		</g>
	</g>
	<g>
		
			<linearGradient id="SVGID_20_" gradientUnits="userSpaceOnUse" x1="88.8195" y1="133.5" x2="88.8195" y2="89.6" gradientTransform="matrix(-1 0 0 -1 159.3695 362.4)">
			<stop  offset="0" style="stop-color:#272438"/>
			<stop  offset="1" style="stop-color:#304260"/>
		</linearGradient>
		<path class="st26" d="M66.8,228.9c0,0-7.6,8.6-13.6,15.7l3.2,28.2c0,0,0.5-12.2,9.5-18.6c9-6.4,22-24.2,22-24.2L66.8,228.9z"/>
		<path class="st27" d="M68.3,204.1c0,0-7.1,3.9-8.5,4.4c-1.4,0.4-3.1,1-5,0c-2-1-6.1-5.4-6.9-8.1l4-2.1l6.2,5.4l7.4-3.7L68.3,204.1
			z"/>
		<path class="st28" d="M80.3,190.4l-8.1-3.2c0,0-2.5,1.2-4.4,5c-2,3.7-5.7,7.7-5.7,7.7l6.6,7.7c0,0,4.6-4.7,7-8.9
			C77.9,195,80.3,190.4,80.3,190.4z"/>
		
			<linearGradient id="SVGID_21_" gradientUnits="userSpaceOnUse" x1="44.3678" y1="267.0906" x2="45.8604" y2="267.0906" gradientTransform="matrix(-0.866 -0.5 0.5 -0.866 -28.7403 442.418)">
			<stop  offset="0" style="stop-color:#272438"/>
			<stop  offset="1" style="stop-color:#304260"/>
		</linearGradient>
		<path class="st29" d="M60.6,195.9l1.4,0.7l8.5-14.7c0.2-0.2,0.1-0.9-0.2-1l0,0c-0.2-0.2-0.9-0.1-1,0.2L60.6,195.9z"/>
		<path class="st27" d="M87.3,171.5c0,0,0.5,4,0.9,6s1.1,2.7,1.6,3.2s6.1,4.2,6.1,4.2s-12.2,22.8-15.7,11c-1.1-3.7-5.6-10-5.6-10
			s4.2-3.4,4.9-5c0.6-1.7,1-6.5,1-6.5L87.3,171.5z"/>
		<path class="st30" d="M81.4,186.3c-0.6,1.1,0,0-0.6,0.4c-1,0.7-2.3-1-3.3-0.4c-0.6,0.4-1.4,0.7-2,1.1c-0.5-0.9-0.9-1.4-0.9-1.4
			s4.2-3.4,4.9-5c0.6-1.7,1-6.5,1-6.5l6.9-3c0,0,0.5,4,0.9,6l0,0C87.1,182.4,84.3,186.6,81.4,186.3z"/>
		<g>
			
				<linearGradient id="SVGID_22_" gradientUnits="userSpaceOnUse" x1="95.5339" y1="123.2" x2="95.5339" y2="56" gradientTransform="matrix(-1 0 0 -1 159.3695 362.4)">
				<stop  offset="0" style="stop-color:#272438"/>
				<stop  offset="1" style="stop-color:#304260"/>
			</linearGradient>
			<path class="st31" d="M59.8,239.3c-2.5-0.5-7.4,5-10,11.7c-1.9,4.9-1,11.6-0.2,20.8c0.5,6.4,2.5,34.6,2.5,34.6h7.4
				c0,0,1.4-16.1,1.9-27.8c0.9-17.3,1-20.1,1-20.1L79,239.2C79,239.3,63.7,240,59.8,239.3z"/>
			<path class="st28" d="M82,232.1c-6.1-0.2-15.7-2.6-15.2-3.2c1.2-1.2,2.9-15.5,2.9-19.1c0.1-10.4,2.5-22.5,2.5-22.5l6-4.2
				c0,0,0.2,4.1,4.9,4.5c10,0.9,9.6-4.7,9.6-4.7s8,2.6,10.5,4.9c3.4,2.7,1.9,6.1-0.1,19.6c-0.9,5.6-0.7,12.4-1.4,17.5
				c-0.5,4.2,0.2,14.5-2.7,14.2C93.8,237,87.8,232.1,82,232.1z"/>
			
				<linearGradient id="SVGID_23_" gradientUnits="userSpaceOnUse" x1="78.2695" y1="71.7902" x2="78.2695" y2="66.0587" gradientTransform="matrix(-1 0 0 -1 159.3695 362.4)">
				<stop  offset="0" style="stop-color:#272438"/>
				<stop  offset="1" style="stop-color:#304260"/>
			</linearGradient>
			<path class="st32" d="M80.2,290.7c1.4-0.2,3.9,0.2,5.1,1.1s2.6,0.9,2.6,0.9v3.7H74.3L80.2,290.7z"/>
			
				<linearGradient id="SVGID_24_" gradientUnits="userSpaceOnUse" x1="104.9695" y1="56.2134" x2="104.9695" y2="48.5517" gradientTransform="matrix(-1 0 0 -1 159.3695 362.4)">
				<stop  offset="0" style="stop-color:#272438"/>
				<stop  offset="1" style="stop-color:#304260"/>
			</linearGradient>
			<polygon class="st33" points="52.2,306.4 59,306.2 59.3,310.4 49.5,313.9 			"/>
		</g>
		<path class="st27" d="M100.8,201.2c0,0-7.1,5.7-10,7.6c-4.2,2.6-4.7,3.5-6.6,3s-22.1-17.1-22.1-17.1l1-3.7c0,0,8.4,5.6,14.2,8.7
			c3.2,1.7,7.6,4.1,7.6,4.1l7.5-6.4L100.8,201.2z"/>
		<path class="st28" d="M86,201.4c0,0,10.2-10,11.6-11.2c6.7-6.4,9.9-0.2,6.5,8c-1,2.6-5.5,8.6-10.4,11.2
			C90.7,208.3,87.5,203.4,86,201.4z"/>
		
			<linearGradient id="SVGID_25_" gradientUnits="userSpaceOnUse" x1="77.7616" y1="130.3" x2="77.7616" y2="69.7159" gradientTransform="matrix(-1 0 0 -1 159.3695 362.4)">
			<stop  offset="0" style="stop-color:#272438"/>
			<stop  offset="1" style="stop-color:#304260"/>
		</linearGradient>
		<path class="st34" d="M66.9,243.8c2-4.1,6.1-5.9,11.2-11.7c0,0,3.6,0.1,9.6,0.9c5,0.6,11.2,2.7,11.2,2.7c0.6,3.1,0.4,7.1-3.4,11.6
			c-2.5,3-5.9,1.4-12.5,4c-1.4,1.1-2.2,2-2.2,2s-0.1,4.5,2.5,15.7s3.7,23.6,3.7,23.6l-6.9-1.1c0,0-6.2-12.1-8.6-17.2
			c-6.2-13.1-6.6-18.2-7.4-22C63.8,249,65.2,246.2,66.9,243.8z"/>
		<g>
			<path id="XMLID_1_" class="st21" d="M70.3,207.5l-11.5,3.2c-1.2,0.2-2.6-0.2-3.1-1.4l-11.1-23.8c-0.5-1,0-2.2,1.2-2.6l11.4-3.4
				c2-0.2,3.1,0.2,3.6,1.4l11.1,23.6C72.6,205.9,72.3,206.5,70.3,207.5z"/>
			<path id="XMLID_4_" class="st35" d="M68.9,207.7l-11.5,3.2c-1.2,0.2-2.6-0.2-3.1-1.4l-11-23.7c-0.5-1,0-2.2,1.2-2.6l11.4-3.4
				c2-0.2,3.1,0.2,3.6,1.4l11.2,23.7C71.2,206,70.9,206.9,68.9,207.7z"/>
			<path id="XMLID_3_" class="st36" d="M68.7,207.8l-11.6,3.4c-1.2,0.2-2.6-0.2-3.1-1.4l-11.1-24c-0.5-1,0-2.2,1.2-2.6l11.5-3.4
				c1.2-0.2,2.6,0.2,3.1,1.4L69.9,205C70.6,206.4,69.9,207.5,68.7,207.8z"/>
			<g>
				<path class="st35" d="M44.4,188.6l1.4-0.6c0.2-0.1,0.4-0.4,0.2-0.6l0,0c-0.1-0.2-0.4-0.4-0.6-0.2l-1.4,0.6
					c-0.2,0.1-0.4,0.4-0.2,0.6l0,0C43.9,188.6,44,188.8,44.4,188.6z"/>
				<path class="st35" d="M46,192.6l1.4-0.6c0.2-0.1,0.4-0.4,0.2-0.6l0,0c-0.1-0.2-0.4-0.4-0.6-0.2l-1.4,0.6
					c-0.2,0.1-0.4,0.4-0.2,0.6l0,0C45.5,192.6,45.7,192.8,46,192.6z"/>
				<path class="st35" d="M47.6,196.6L49,196c0.2-0.1,0.4-0.4,0.2-0.6l0,0c-0.1-0.2-0.4-0.4-0.6-0.2l-1.4,0.6
					c-0.2,0.1-0.4,0.4-0.2,0.6l0,0C47.1,196.6,47.4,196.7,47.6,196.6z"/>
				<path class="st35" d="M49.4,200.6l1.4-0.6c0.2-0.1,0.4-0.4,0.2-0.6l0,0c-0.1-0.2-0.4-0.4-0.6-0.2l-1.4,0.6
					c-0.2,0.1-0.4,0.4-0.2,0.6l0,0C48.7,200.5,49,200.7,49.4,200.6z"/>
				<path class="st35" d="M51,204.5l1.4-0.6c0.2-0.1,0.4-0.4,0.2-0.6l0,0c-0.1-0.2-0.4-0.4-0.6-0.2l-1.4,0.6
					c-0.2,0.1-0.4,0.4-0.2,0.6l0,0C50.4,204.5,50.7,204.6,51,204.5z"/>
				<path class="st35" d="M52.6,208.5l1.4-0.6c0.2-0.1,0.4-0.4,0.2-0.6l0,0c-0.1-0.2-0.4-0.4-0.6-0.2l-1.4,0.6
					c-0.2,0.1-0.4,0.4-0.2,0.6l0,0C52,208.5,52.3,208.6,52.6,208.5z"/>
			</g>
		</g>
		<g>
			<path class="st27" d="M49.2,200.7c-0.2-0.5-0.4-0.9-0.6-1.4c0.7-0.2,1.9-0.9,2.5-1.2c1.2-0.6,2.2-0.7,2.2-0.7l0.2,1.2
				c0,0-1.2,0.2-2.2,0.9C50.7,199.7,49.9,200.4,49.2,200.7z"/>
			<path class="st27" d="M48.5,199.1c-0.2-0.5-0.4-1-0.6-1.4c1.4-0.9,3.5-1.7,3.5-1.7l0.7,0.9c0,0-1.6,0.9-2.4,1.4
				C49.5,198.5,49,198.9,48.5,199.1z"/>
			<path class="st27" d="M50,202.2c-0.2-0.4-0.4-0.9-0.6-1.4c0.9-0.2,2.1-0.7,2.6-1c0.7-0.4,1.1-0.5,1.1-0.5l0.4,1.1
				c0,0-1,0.9-2.5,1.4C50.7,201.9,50.2,202.1,50,202.2z"/>
			<path class="st27" d="M50,202.4c0.7-0.1,1.6-0.2,2-0.6c0.6-0.4,0.9-0.4,0.9-0.4l0.2,0.9c0,0-1.2,0.6-2.6,1.4
				C50.4,203.4,50.1,203,50,202.4z"/>
			<polygon class="st27" points="51.6,203.1 50.6,203.7 48.6,202.6 47.1,198.2 48.2,195.9 			"/>
		</g>
		<rect x="77.2" y="296.3" class="st37" width="10.7" height="2.4"/>
		<path class="st27" d="M71.2,167.5c0.1,2.2,1.1,7.1,1.9,9.1c1,2.7,3,4.9,5.1,5.5c2.1,0.7,5.4-2,6.7-4.1c1.4-2,1-4.7,1-7.2
			c0-2.6-1-5-1-5s0.2-4.2-2.1-5.4C73.9,155.8,71.2,165.4,71.2,167.5z"/>
		<path class="st38" d="M70.7,166.3c2.6,0.1,3.2-3,8.5-1.4c2,0.6,3.5-0.9,3.5-0.9c0.4,1.5-0.5,1.9-0.2,3.1c0.2,1.4,2.1,2.2,2.1,2.2
			s0.5,2,1.2,2.6c0.6,0.5,2.2,4.9,2.2,4.9s1.4-4.2,1.4-4.9c0.1-0.6,2-2.1,2.6-4.2c0.7-2.2-0.6-10.9-6-10.4c0,0-5.9-3.9-12.6,1.6
			C70.8,161.2,70.7,166.3,70.7,166.3z"/>
		<path class="st27" d="M84.5,169.9c-0.1-1-0.6-3.6,1.6-3.9c2.2-0.4,2.1,3.1,1.4,4s-1.5,2.6-1.5,2.6S84.8,171.5,84.5,169.9z"/>
	</g>
	<g>
		<g>
			<rect x="125.7" y="83.6" class="st3" width="70.5" height="3.7"/>
			<rect x="128.5" y="84.3" class="st2" width="70.5" height="3.7"/>
			<polygon class="st2" points="146,88.7 127.6,215.2 106.7,210.2 125.6,83.8 			"/>
			<polygon class="st39" points="143.1,88 146,88.7 127.2,215.5 124.2,214.7 			"/>
			<polygon class="st5" points="128.3,84.5 110,211 106.7,210.2 125.6,83.8 			"/>
			<polygon class="st3" points="146.2,88.7 205.8,90.1 183.6,213.2 127.2,215.5 			"/>
			<polygon class="st5" points="146.2,88.7 205.8,90.1 183.6,213.2 127.2,215.5 			"/>
			<polygon class="st2" points="189.1,146.6 192.7,125.1 148.4,114.5 144.7,135.9 			"/>
		</g>
		<g>
			<polygon class="st2" points="170.5,78.5 171.1,212.3 145.5,212.3 145.4,78.5 			"/>
			<polygon class="st40" points="166.9,78.5 170.5,78.5 170.6,212.6 166.9,212.6 			"/>
			<polygon class="st40" points="148.8,78.5 149.3,212.3 145.5,212.3 145.4,78.5 			"/>
			<rect x="170.6" y="78.5" class="st41" width="72.9" height="134.1"/>
			<rect x="178.6" y="104.3" class="st2" width="54.3" height="22.8"/>
		</g>
		<g>
			<path class="st42" d="M272.6,25.6l74,70.4c0.2,0.2,0.2,0.4,0.1,0.7l-2.6,4.6l-98.9-29.2l0,0L166,4.9l2.6-4.7
				C168.7,0,169,0,169.2,0l99.9,23.8C270.4,23.9,271.6,24.7,272.6,25.6z"/>
			<path class="st43" d="M273.6,34.3l70.5,66.9L242.4,77.1c-0.1,0-0.1-0.1-0.2-0.1L165.9,4.7l95.3,22.7
				C265.9,28.7,270.1,31.1,273.6,34.3z"/>
			<g>
				<path class="st42" d="M259,46.9c25.7,14,44,29.9,40.9,35.6l-22.8,42.2L184,74.2L206.8,32C209.8,26.4,233.1,32.9,259,46.9z"/>
				<path class="st6" d="M183.1,74.6c-0.2,0.5-0.4,1-0.2,1.7c0.4,6.7,17.7,21.2,41.3,33.9c23.5,12.7,44.9,19.3,50.9,16.1
					c0.6-0.2,1-0.7,1.2-1.2c3.1-5.7-15.2-21.7-40.9-35.6C209.6,75.5,186.2,68.9,183.1,74.6z"/>
				<path class="st44" d="M182.9,76.3c0.4,6.7,17.7,21.2,41.3,33.9c23.5,12.7,44.9,19.3,50.9,16.1c1.4-6.5-16.2-21.8-40.7-35.1
					S187.6,71.6,182.9,76.3z"/>
			</g>
			<g>
				<path class="st45" d="M309.9,110.7c0,0-4.1,10-4.5,17.7c-0.4,7.7,1.2,15.3,1.2,15.3l1.5,1.6l1.6-1.1l1.5,2.6l1.1-2.4l2,2
					l1.5-1.5l0.9,3.4l2.4-1.7l2.2,0.5c0,0,1.5-8.9,2-12.5c1.1-10-0.2-15.6-2.4-23.5C317.2,97.3,309.9,110.7,309.9,110.7z"/>
				<path class="st46" d="M290.4,41c22.1,19,22.8,19.6,26.9,26.8c4.1,7.2-1.5,32.9-1.5,32.9"/>
				<path class="st47" d="M321.1,111.3l-11.1-0.6l0.6-10.5c0.2-3.1,2.7-5.4,5.9-5.2l0,0c3.1,0.2,5.4,2.7,5.2,5.9L321.1,111.3z"/>
			</g>
			<g>
				<g>
					<g>
						<g>
							<defs>
								<path id="SVGID_26_" d="M182.9,76.3c4.2-4.2,32.3,2,61.3,20.6c22.6,14.5,32.2,23.3,30.8,29.3c-2,1.1,1.6,6.6-3.5,5.5l5,83.6
									H165.9V77.8L182.9,76.3z"/>
							</defs>
							<clipPath id="SVGID_27_">
								<use xlink:href="#SVGID_26_"  style="overflow:visible;"/>
							</clipPath>
							<g class="st48">
								<polygon class="st2" points="192.2,78.5 192.7,212.3 171.6,212.3 171.5,78.5 								"/>
								<polygon class="st49" points="188.6,78.5 192.2,78.5 192.2,212.6 188.6,212.6 								"/>
								<polygon class="st49" points="174.9,78.5 175.4,212.3 171.6,212.3 171.5,78.5 								"/>
								<rect x="192.2" y="78.5" class="st50" width="72.9" height="134.1"/>
								<rect x="192.2" y="78.5" class="st51" width="72.9" height="134.1"/>
								<rect x="200.3" y="104.3" class="st2" width="54.3" height="22.8"/>
							</g>
						</g>
					</g>
				</g>
			</g>
		</g>
	</g>
	<g>
		<g>
			<path class="st52" d="M153.8,249.4V214h105.1c9.9,0,17.7,8,17.7,17.7l0,0c0,9.9-8,17.7-17.7,17.7L153.8,249.4L153.8,249.4z"/>
			<path class="st2" d="M133.8,245.8v-28.2c0-2,1.6-3.6,3.6-3.6H239c9.9,0,17.7,8,17.7,17.7l0,0c0,9.9-8,17.7-17.7,17.7H137.4
				C135.6,249.4,133.8,247.8,133.8,245.8z"/>
			<path class="st52" d="M131.3,245.8v-28.2c0-2,1.6-3.6,3.6-3.6h73.8c9.9,0,17.7,8,17.7,17.7l0,0c0,9.9-8,17.7-17.7,17.7H135
				C132.9,249.4,131.3,247.8,131.3,245.8z"/>
			<path class="st52" d="M112.9,245.8v-28.2c0-2,1.6-3.6,3.6-3.6H191c9.4,0,16.8,7.6,16.8,16.8v1.9c0,9.4-7.6,16.8-16.8,16.8h-74.5
				C114.5,249.4,112.9,247.8,112.9,245.8z"/>
		</g>
		<g>
			<g>
				<g>
					<g>
						<defs>
							<path id="SVGID_28_" d="M107.1,249.4V214h57.8c9.9,0,17.7,8,17.7,17.7l0,0c0,9.9-8,17.7-17.7,17.7L107.1,249.4L107.1,249.4z"
								/>
						</defs>
						<clipPath id="SVGID_29_">
							<use xlink:href="#SVGID_28_"  style="overflow:visible;"/>
						</clipPath>
						<path class="st53" d="M107.1,249.4V214h57.8c9.9,0,17.7,8,17.7,17.7l0,0c0,9.9-8,17.7-17.7,17.7L107.1,249.4L107.1,249.4z"/>
					</g>
				</g>
			</g>
		</g>
		<g>
			<g>
				<g>
					<g>
						<defs>
							<path id="SVGID_30_" d="M177.5,245.2h-56.6c-7.6,0-13.7-6.1-13.7-13.7l0,0c0-7.6,6.1-13.7,13.7-13.7h56.6V245.2z"/>
						</defs>
						<clipPath id="SVGID_31_">
							<use xlink:href="#SVGID_30_"  style="overflow:visible;"/>
						</clipPath>
						<path class="st54" d="M116.5,217.8H168c5.2,0,9.4,4.2,9.4,9.4v8.5c0,5.2-4.2,9.4-9.4,9.4h-51.5c-5.2,0-9.4-4.2-9.4-9.4v-8.5
							C107.1,222,111.3,217.8,116.5,217.8z"/>
					</g>
				</g>
			</g>
		</g>
	</g>
	<g>
		<g>
			<path class="st21" d="M222,153.5c0.9-1.4,4.7-3.9,4.7-3.9s3.5,3.7,4.2,8c0.9,4.2,8.9,20.7,9.2,22.1c0.2,1.4-0.5,7.2-0.5,7.2
				l-6.9-2.4c0,0-0.4-4.4-2.7-7.5c-2.4-3.1-8.1-10.9-8.9-16.2C220.5,155.4,219.9,156.7,222,153.5z"/>
			<path class="st27" d="M208.6,136.9c0,0,0.1,0.6-0.2,2.7c-0.2,2.1-1.2,3.4-1.7,4c-0.5,0.7-4.2,2.5-5,3c0,0,8.2,10.7,14.2,10.5
				c11.4-0.5,5.5-10.4,5.5-10.4s-3.7-1.5-5-2.6c-0.9-0.6-1.1-4.4-1.1-4.4L208.6,136.9z"/>
			<path class="st21" d="M216.4,144.2c0,0,2.6,6-1.4,6.7c-6.5,1-8.4-7.1-8.4-7.1l-7.1,3.7l9.4,14.6l14.1-7.4l-0.2-7.1L216.4,144.2z"
				/>
			<g>
				<polygon class="st55" points="243.7,258.4 243.2,262.9 246,270.1 237.6,266.1 238,259.4 				"/>
				<path class="st56" d="M231.3,193.8c0,0,16,13.1,17.7,17.2s-4.2,49.2-4.2,49.2l-7.7-0.5c0,0-0.7-14.8-1.4-22.6
					c-0.7-8.2,0.1-20.1,0.1-20.1s-9-3.7-13.5-4.7c-18.5-4.4-14.6-16-14.3-23.3L231.3,193.8z"/>
			</g>
			<g>
				<path class="st56" d="M217.4,195.9c0,0,12.4,8.9,14.1,12.9c1.7,4.1-13.5,52.5-13.5,52.5l-7.6,0.2c0,0,3.6-20.2,4.4-28.2
					c0.7-7.9,1.9-17.5,1.9-17.5s-10.5-1.5-14.5-3.7c-7.1-3.7-5.4-9-5.1-16.3L217.4,195.9L217.4,195.9z"/>
				<polygon class="st55" points="218,261.2 217.2,264.6 219.8,274 210.4,268.7 212.4,259.7 				"/>
			</g>
			<path class="st41" d="M205.1,144.5c0,0,2,11.4,11,11.4c0,0,3.7,26.4,3.5,29.4s0.5,11.4-1.5,12.9c-5,3.6-18.3,1.6-21,1.6
				c0,0-0.9-12.2-1.2-19.5c-0.2-7.2,2.7-17,2.5-20.6s-4.2-10-4.2-10L205.1,144.5z"/>
			<path class="st41" d="M218.4,145.2c0,0,3.7,8.1-2.6,10.6c0,0,0.4,38.4,2.6,41.2c2.2,2.7,13.7,0.7,14.3,1c0.6,0.2-4.5-14.3-4.5-18
				c0-3.6-1.7-30.6-1.7-30.6L218.4,145.2z"/>
			<path class="st27" d="M225.5,129.1c-0.1,1.9-1.5,5.9-1.9,8.6c-0.2,2.9-1.6,5-3.5,6.5c-1.9,1.4-4.5,1.4-6,0.5
				c-1.4-0.9-4.4-2-6-7.4c-1.5-5.4-0.1-10.1-0.1-10.1l8.9-1.6L225.5,129.1z"/>
			<path class="st55" d="M226.4,130.4c-2.6,2-4.2,0.6-6-0.1c-2-0.9-7-3.7-7-3.7s-1.1,2.6-1.1,4.5c0,2-1.1,3.5-1.1,3.5s0.2-2.1-1-3.1
				c-1.2-0.9-2,1.6-1.6,3.5s0.9,2.5,0.9,2.5s-0.6,1.2-1.2,2.9c0,0-0.9-5-2-7c-0.9-2-1.2-4.7-0.2-7.6c0.9-2.9,5.2-2.5,5.2-2.5
				s4.2-4.5,8.7-2.9c4.4,1.6,7.7,6.4,8.4,5.5C228.4,126.1,228.9,128.4,226.4,130.4z"/>
			<path class="st55" d="M211.9,132.6c0,0.2,0.5,0.2,0.5,0.4c0.2,0.1,0.1,0.1,0.5,1.4c0.2,1,1.2,1.5,3.5,1.6
				c1.6,0.1,1.9-1.1,2.1-1.5c0.2-0.5,0.5-0.5,0.7-0.5s0.4,0.1,0.5,0.7c0.1,0.5,0.2,1.9,2,2.1c1.2,0.2,2-0.1,2.4-0.7
				c0.7-1.2,0.7-1.1,0.9-1.2s0.4-0.6,0.4-0.9s-0.9-0.5-2-0.7c-1-0.2-2.5-0.4-3.1-0.2c-0.6,0.1-0.6,0.2-0.9,0.2
				c-0.2,0-0.2-0.2-0.9-0.6c-0.5-0.2-3.1-0.7-4.2-0.9c-1-0.2-2.4-0.2-2.5,0C211.9,132.1,211.9,132.4,211.9,132.6z M220.4,134
				c0.2-0.4,0.6-0.2,1.9-0.2c1.2,0.1,1.7,0.2,2,0.4c0.2,0.2,0.2,0.9-0.2,1.5c-0.5,0.9-0.9,1.2-2,1c-1-0.2-1.5-0.9-1.6-1.5
				C220.3,134.6,220.4,134.1,220.4,134z M213.4,132.5c0.2-0.2,1.9,0.2,3.1,0.4c1.2,0.2,1.6,0.2,1.7,0.7c0,0.1-0.1,0.7-0.2,1.4
				c-0.2,0.6-0.6,1.1-2.6,0.9c-1.4-0.2-1.9-0.7-2.1-1.6C213,133.2,213.2,132.6,213.4,132.5z"/>
		</g>
		<g>
			<path class="st57" d="M216.4,197.2l0.9-2.7c0,0,7.2,2.4,9.4,2.7c2,0.4,5.2,2,5.2,2H219L216.4,197.2z"/>
			<path class="st21" d="M219.8,195.1l-0.9,4.2c0,0-18.6-1.4-22-6.9c-1.6-2.6-2.1-3.1-3.9-12c-3.9-19.5-1.7-29.4,0.9-30.4
				c2.6-1.1,7.2,4.6,6.7,9.4c-0.5,4.7,3.7,26.6,3.7,26.6S210.1,190.5,219.8,195.1z"/>
		</g>
		<g>
			<polygon class="st37" points="224.5,200.6 232.4,200.6 240.1,173.5 234.1,173.5 			"/>
			<polygon class="st58" points="226.8,200.6 257,200.6 264.7,173.5 234.6,173.5 			"/>
			<rect x="222.4" y="200" class="st58" width="34.6" height="2"/>
			<rect x="205.1" y="200" class="st37" width="17.3" height="2"/>
			<path class="st37" d="M243.4,188.4c-0.9,2-0.2,4.2,1.4,5c1.6,0.7,3.7-0.4,4.5-2.5c0.9-2,0.2-4.2-1.4-5
				C246.2,185.3,244.4,186.4,243.4,188.4z"/>
		</g>
	</g>
	<g>
		<path class="st59" d="M443,243c-0.4,0.9-0.2,1.4-0.6,1.6c-0.4,0.2-0.9,0.1-1.2-0.1c-0.2-0.1-2,0-2-0.2c0.1-0.7,1.2-0.6,1.5-0.9
			c0.5-0.4,1.2-0.9,1.6-1.2C442.6,241.8,443.4,242.3,443,243z"/>
		<path class="st59" d="M442.5,242.9c-0.2,0.9,0.2,1.4-0.2,1.9c-0.4,0.4-0.7,0.2-1.2,0.2c-0.4,0-2,0.6-2,0.4c-0.1-0.7,1-0.9,1.2-1.1
			c0.4-0.5,1-1.1,1.2-1.6C441.6,242.2,442.6,242,442.5,242.9z"/>
		<path class="st59" d="M443,243c0,1.1,0.5,1.6,0.1,2.1c-0.4,0.5-0.9,0.4-1.5,0.4c-0.5,0-2.5,0.9-2.5,0.6c-0.2-0.9,1.1-1.1,1.4-1.4
			c0.4-0.7,1-1.4,1.1-2C441.9,242,443.1,242,443,243z"/>
		<path class="st60" d="M403.2,212.3c12.6-0.6,20.5,2.1,25,14c4.5,11.7,8.7,20.5,1.7,23.3c-7,2.9-29.4,2.6-29.4,2.6
			S390.2,213,403.2,212.3z"/>
		<g>
			<path class="st61" d="M388.8,228.2c1.9-4.5,3-0.7,3.6-0.4c2.4,1.1,3.1,3,1.2,5.4c-1.5,1.7-2.7,7.7-5,8.7c-1,0.4-2.9-2.4-2.6-3.4
				v-1.3L388.8,228.2z"/>
			<path class="st62" d="M422.9,311.2c0.5-0.4,0.4-0.7,2.4,0.7c2,1.4,2.9,2.7,2.9,3.2s-1.7,3.7-2.9,6.5c-1.1,2.7-2.2,6.5-6,7.9
				c-3.7,1.4-6.2,1.1-5.7-2.1c0.5-3.1,3.4-8.2,4.1-10C418.5,315.6,422.9,311.2,422.9,311.2z"/>
			<path class="st63" d="M427.6,314.1c-0.1,0.6-1.7,3.7-2.9,6.4c-1.1,2.7-2.2,6.5-6,7.9c-2.5,0.9-4.4,1.1-5.4,0.2
				c0.2,2,2.6,2,5.7,0.9c3.7-1.4,4.9-5.2,6-7.9c1.1-2.7,2.9-6,2.9-6.5C428.1,314.9,427.9,314.5,427.6,314.1z"/>
			<path class="st61" d="M412.5,282.2c7.5,0,4.5,7.7,7.1,10.7c2.6,3,2.9,14.5,3.7,17.3c0.8,2.8,1.6,3.2,0.9,5.4
				c-0.7,2-2,4.6-2.6,4.2c-0.7-0.2-3.5-2-3.9-2.1c-0.5-0.2,1.5-1.6,0.4-7.1c-1.1-5.5-6.5-16.1-7.7-18.5c-1.2-2.6-1.4-5-1.4-6.9
				C409,283.5,411.4,282.2,412.5,282.2z"/>
			<path class="st62" d="M404.2,289.6c2.2,0.6,2.9,1.4,3.2,2.6c0.2,1.2-0.9,4.5-0.9,6.1s0.4,5.7-0.9,7.7c-1.4,2-2.4,2.7-4.2,2.6
				c-1.9-0.1-3.5-1.1-3.2-5c0.2-3.9,1-6,1.5-8.4c0.2-0.9,0.7-3.1,1-4.9C401.2,288.9,404.2,289.6,404.2,289.6z"/>
			<path class="st63" d="M407.4,292.3c-0.1-0.4-0.2-0.9-0.5-1.1c0,0.1,0,0.2,0,0.2c-0.1,0.4-0.4,3.5-0.5,4.4
				c-0.1,1.2-0.4,2.6-0.4,4.4c0,0.9-0.6,3.9-0.6,3.9c-1.1,3.4-2.6,4.6-6.5,3.2c0.6,1,1.5,1.4,2.6,1.4c1.9,0,2.9-0.6,4.2-2.6
				c1.4-2,1-6.1,0.9-7.7C406.5,296.8,407.7,293.4,407.4,292.3z"/>
			<path class="st62" d="M406.8,277c-0.9,1.4-4.4,0-8.6-1.4s-5-0.2-5.7-2c-0.6-1.9,1.1-6.5,6-5.1C403.2,269.9,407.8,275.2,406.8,277
				z"/>
			<path class="st61" d="M398.3,265c5.4,0.9,4.6,6,4.2,9.2c-0.4,3.2-0.4,3.2,0.9,6.2c1.4,3,0.6,6.5,2,9c1.4,2.6,0.2,6.4-0.2,6.5
				c-0.5,0.2-1.2-0.6-2.7-0.2c-1.5,0.2-2.2,0.4-2.2-0.2s1.6-3.9,0.5-5.4c-1.1-1.5-7.7-11.7-7.9-16.2
				C392.7,269.4,394.6,264.5,398.3,265z"/>
			<path class="st64" d="M404.3,249.5c10,1.6,3.5,23.7,3.4,24.2c-0.2,0.5-4.5-7-9.9-5.9c-5.4,1.1-4.5,0.4-4.5,0.4s0.9-3.7,2.2-8.9
				C397.2,254.5,398.8,248.5,404.3,249.5z"/>
			<path class="st63" d="M392.6,273.7c0,0-0.9-1.4-0.2-3.9c0.9-2.6,1-3,4.5-3.1s5.7,0.9,8.2,2.7c2.5,1.9,4.1,3.2,3.9,4.1
				s-2,3.6-2.1,3.4c-0.1-0.2-2-3.5-4.6-4.9c-2.6-1.4-4.9-2.6-6.6-2.2C393.7,270.1,392.5,273.1,392.6,273.7z"/>
			<path class="st64" d="M408.3,252.9c11.7,3.6,16,4.9,14.8,15.2c-1.1,10.4-3.7,17-4.4,18.6c-0.5,1.5-9,0.2-11-1.2
				c-2-1.4-1.7-0.4-0.9-6.5c1-6.1,2.5-8.9,1.2-13.2C406.8,261.4,406.6,252.5,408.3,252.9z"/>
			<path class="st63" d="M406.2,280.7c0,0-1.1,4-0.9,4.6s3.7,3.2,6.5,3.7c2.7,0.4,7-0.2,7.2-0.2c0.2-0.2,0.2-3.6,0.2-3.6
				s-0.9,1.1-5.2,0.5C409.8,285.1,406.3,281.5,406.2,280.7z"/>
			<path class="st61" d="M430,233.8c-0.9-0.2-5.4-3.4-5.9-3.6c-0.2-0.2,2-6,3.9-4.7c2,1.4,2.6,2,4.1,2.4L430,233.8z"/>
			<path class="st62" d="M394.6,217.6c-3,1-6,10-6,10.5c0.1,0.5,1.6,2.9,4.2,3.1c2.5,0.2,3,0.4,4.9-3.1
				C399.7,224.7,395.8,217.2,394.6,217.6z"/>
			<path class="st62" d="M407.3,215.6c-10.2,1.2-13.3,1.1-14.2,3.6c-0.9,2.5,3.7,9.7,4.6,12.1c0.9,2.4,2,12.4,0.7,16.5
				c-1.2,4.1-3.1,12-3.1,12s3.9-5,6.1-3.6c2.2,1.4,2,4.5,7.2,6.2c5.4,1.9,16.5,4.6,16.7,3.9s-0.4-7.5-0.2-14.6
				c0.1-7.1-2.2-22.2-3-26.9c-0.7-4.7,1.4-6.5-3.1-7.6C414.7,216.2,409,215.5,407.3,215.6z"/>
			<path class="st61" d="M407.1,222.9h-1.4c-2,0-3.7-1.7-3.7-3.7V207c0-2,1.7-3.7,3.7-3.7h1.4c2,0,3.7,1.7,3.7,3.7v12.2
				C410.8,221.2,409.2,222.9,407.1,222.9z"/>
			<path class="st61" d="M403.2,194.6c-5.4-0.2-7.5,7-5.5,14.1c0.9,3.5,2.5,5.6,4.4,6.4c2,0.7,4.2,0,6.7-2.4
				C413.5,208.2,409.7,195,403.2,194.6z"/>
			<path class="st65" d="M396.9,203.2c0.9-4.9,3.6-3.7,4.4-5.4c0.9-1.7,4.4,3.2,6.1,3.7c1.7,0.4,1.7,5.1,3,5.1c1.1,0,4.7-0.6,6-2
				c1.2-1.4,2-1.5,1-3.6c-0.9-2-2.5-7-6-7.6s-5.1-2.5-8.9-1.1c-3.7,1.4-6.4,3.5-6.6,6.2C395.6,201.5,396.3,203.6,396.9,203.2z"/>
			<path class="st61" d="M414,207.3c0,1.4-1.1,2.6-2.6,2.6s-2.6-1.2-2.6-2.6c0-1.4,1.1-2.6,2.6-2.6S414,205.9,414,207.3z"/>
			<path class="st63" d="M411.2,215.5c0,0-2.7,6-5.4,7.4c1.9,1,3.6-0.4,7.1,1.7c1.6,1,2.1-7.2,2-8.2
				C414.5,215.5,411.2,215.5,411.2,215.5z"/>
			<path class="st63" d="M401.7,216.1c0,0-0.9,5.4,4.4,6.6c0,0-1.6,0.7-3.2,0c-1.6-0.7-4.7,2.2-4.7,2c-0.1-0.2,0.1-7.1,0.9-7.9
				C399.4,215.8,401.7,216.1,401.7,216.1z"/>
			<path class="st62" d="M419.2,217.3c4.5,1.4,3.7,1.5,6.4,3.7c2.6,2.1,5.4,5,5.4,5s-1.9,5.2-3.7,6c-1.9,0.7-4.9-1.4-7.9-2.2
				C416,228.8,419.2,217.3,419.2,217.3z"/>
		</g>
		<path class="st66" d="M397.3,233.7c0,0,0.2,2,1.1,3.5c0.9,1.5,1.4,5.1-0.6,3c-1.4-1.4-1.4-2.6-1.5-3.7c-0.1-0.6-0.1-1.7,0.2-2.1
			L397.3,233.7z"/>
		<path class="st67" d="M400.2,215.8c0,0-3.1,3.7-3.7,7.4c-0.5,3.6,2.7,15.1,0.9,15.3c-2,0.2-3.9-10.2-3.7-15.1c0.1-4.9,1-5.7,2-6.4
			C396.4,216.5,400.2,215.8,400.2,215.8z"/>
		<g>
			<g>
				<g>
					<path class="st61" d="M367.9,240.5c-1.9-0.2-3.2-0.6-4.2-0.2c-1,0.4-1.6,0.9-1.5,1.7c0.1,0.9,0.4,3.4,0.9,3.5
						c0.4,0.1-0.1-1.5,0.2-1.9c0.4-0.2,2.9,0,4-0.1C368.3,243.4,369.6,240.8,367.9,240.5z"/>
				</g>
				<g>
					<path class="st61" d="M388.8,238c0.9,3.7,0.6,4.2-3.7,4c-4.4-0.2-14.7,0.2-16.1,1.5c-1.4,1.3-1.6,0.2-3,1.5
						c-1.4,1.4-2.1,1.7-2.5,1.2c-0.2-0.5,1.9-2.5,2.2-3.1c0.4-0.7-0.5-1.4,2.1-2.6c2.6-1.2,16.8-3.6,18.1-3.7
						C387.6,236.5,388.6,236.9,388.8,238z"/>
				</g>
			</g>
		</g>
		<path class="st59" d="M442.9,242.8c0.2,1.2,0.7,1.5,0.5,2.2s-0.7,0.7-1.2,0.9c-0.4,0.2-2,1.7-2,1.5c-0.4-0.9,0.9-1.6,0.9-2
			c0.2-0.9,0.6-1.9,0.7-2.6C441.6,242.2,442.7,241.7,442.9,242.8z"/>
		<path class="st61" d="M430.4,228.6c-4.1,3.1-4.2,4,0.5,7.4c3.7,2.7,8.1,4.2,9.2,6c0.2,0.4-0.1,1.6,0.2,2c1.5,1.1,1.7,0.9,1.5,3.5
			c0.1,1.4-0.1,1.2,0.2,1.5c0.6,0.5,1-2.1,1.1-3.2c0.2-1.1,0.9-1-0.9-4.7c-1.7-3.7-6.9-10.2-8.1-11.6
			C433.1,228.1,431.6,227.4,430.4,228.6z"/>
		<path class="st66" d="M419.7,237.7c0,0,4.1,6.7,7.1,7.7c3.1,0.9-0.7,2.7-4.6,0.2c-3.7-2.6-7-8.5-7-8.5L419.7,237.7z"/>
		<path class="st67" d="M416.9,215.3c0,0-2.4,3.1-1,9.6c1.4,6.5,4,12.2,2.2,12.6c-1.7,0.4-5.2-1.1-6.5-10c-1.2-8.9,0.4-13,0.4-13
			S414.5,213.8,416.9,215.3z"/>
		<path class="st68" d="M410,209.8c-3.5,9.5-11.1,3.7-8.7,5c0.7,0.4,3.1,3.5,5.7,2.6C410.5,216.2,410.5,208.1,410,209.8z"/>
	</g>
	<polygon class="st4" points="343.7,197.2 340.6,198.2 360.5,330 363.8,329.2 	"/>
</g>
</svg>
