<?xml version="1.0" encoding="utf-8"?>
<!-- Generator: Adobe Illustrator 23.1.0, SVG Export Plug-In . SVG Version: 6.00 Build 0)  -->
<svg version="1.1" id="Layer_2" xmlns="http://www.w3.org/2000/svg" xmlns:xlink="http://www.w3.org/1999/xlink" x="0px" y="0px"
	 viewBox="0 0 53.8 22.9" style="enable-background:new 0 0 53.8 22.9;" xml:space="preserve">
<style type="text/css">
	.st0{fill:#BDB8B9;}
	.st1{fill:#FFFFFF;}
</style>
<g>
	<path class="st0" d="M6.8,19.3V14h1L8.6,18L9.4,14h1v5.3H9.7v-4.2l-0.8,4.2H8.4l-0.8-4.2v4.2H6.8z"/>
	<path class="st0" d="M12.1,19.3c-0.2,0-0.3,0-0.5-0.1c-0.1-0.1-0.2-0.1-0.3-0.2c-0.1-0.1-0.1-0.2-0.2-0.4S11,18.3,11,18.1
		c0-0.2,0-0.3,0-0.5c0-0.2,0-0.3,0-0.5c0-0.2,0-0.4,0-0.5c0-0.2,0.1-0.3,0.1-0.5c0.1-0.2,0.1-0.3,0.2-0.4c0.1-0.1,0.2-0.2,0.3-0.2
		c0.1-0.1,0.3-0.1,0.5-0.1c0.4,0,0.7,0.1,0.9,0.3c0.2,0.2,0.3,0.5,0.3,1v0.1h-0.8v-0.1c0-0.1,0-0.2,0-0.2c0-0.1,0-0.1-0.1-0.2
		c0-0.1-0.1-0.1-0.1-0.2c-0.1,0-0.1-0.1-0.2-0.1c-0.1,0-0.1,0-0.2,0.1c-0.1,0-0.1,0.1-0.1,0.2c0,0.1,0,0.2-0.1,0.3
		c0,0.1,0,0.2,0,0.3c0,0.2,0,0.6,0,1.1c0,0.1,0,0.2,0,0.3c0,0.1,0,0.2,0.1,0.2c0,0.1,0.1,0.1,0.1,0.2c0.1,0,0.1,0.1,0.2,0.1
		c0.1,0,0.1,0,0.2,0c0,0,0.1-0.1,0.1-0.1c0,0,0-0.1,0.1-0.2c0-0.1,0-0.1,0-0.2c0-0.1,0-0.1,0-0.2v-0.1h0.8V18c0,0.2,0,0.4-0.1,0.5
		S13.1,18.8,13,19s-0.2,0.2-0.3,0.3S12.3,19.3,12.1,19.3z"/>
	<path class="st0" d="M13.7,19.3V14h2.1v0.6h-1.3v1.7h0.9v0.6h-0.9v2.5H13.7z"/>
	<path class="st0" d="M16.1,19.3V14h0.8v5.3H16.1z"/>
	<path class="st0" d="M18.2,19.3c-0.2,0-0.4-0.1-0.5-0.3c-0.1-0.2-0.2-0.4-0.2-0.6c0-0.2,0-0.4,0.1-0.5s0.1-0.3,0.2-0.4
		c0.1-0.1,0.2-0.2,0.3-0.3c0.2-0.1,0.3-0.2,0.4-0.2c0.1,0,0.2-0.1,0.4-0.2c0,0,0.1,0,0.1,0v-0.3c0-0.2,0-0.3-0.1-0.4
		S18.8,16,18.6,16c-0.1,0-0.2,0-0.3,0.1s-0.1,0.2-0.1,0.4c0,0,0,0.1,0,0.1h-0.8c0-0.4,0.1-0.7,0.3-0.9s0.5-0.3,0.8-0.3
		c0.4,0,0.6,0.1,0.8,0.3s0.3,0.5,0.3,0.9v1.7c0,0.4,0,0.7,0.1,0.9h-0.8L19,18.7c0,0.1-0.1,0.1-0.1,0.2c0,0-0.1,0.1-0.1,0.2
		c0,0.1-0.1,0.1-0.1,0.1c0,0-0.1,0.1-0.2,0.1C18.4,19.3,18.3,19.3,18.2,19.3z M18.6,18.7c0.1,0,0.1,0,0.2,0c0.1,0,0.1-0.1,0.1-0.1
		c0,0,0.1-0.1,0.1-0.1c0,0,0,0,0,0v-1c0,0-0.1,0.1-0.2,0.1s-0.1,0.1-0.2,0.1c0,0-0.1,0.1-0.2,0.1c-0.1,0.1-0.1,0.1-0.1,0.1
		c0,0-0.1,0.1-0.1,0.2c0,0.1,0,0.1,0,0.2C18.2,18.5,18.4,18.7,18.6,18.7z"/>
	<path class="st0" d="M20.4,14.9v-0.8h0.8v0.8H20.4z M20.4,19.3v-3.8h0.8v3.8H20.4z"/>
	<path class="st0" d="M21.9,19.3v-3.8h0.8V16c0.1-0.1,0.2-0.3,0.3-0.4s0.3-0.2,0.5-0.2c0,0,0,0,0.1,0v0.8c-0.1-0.1-0.3-0.1-0.4-0.1
		c-0.2,0-0.3,0-0.4,0.1c-0.1,0.1-0.1,0.2-0.1,0.4v2.6H21.9z"/>
	<path class="st0" d="M25.2,19.3V14h2.1v0.6H26v1.7h0.9v0.6H26v1.9h1.3v0.6H25.2z"/>
	<path class="st0" d="M28.6,19.3c-0.2,0-0.3,0-0.4-0.1c-0.1-0.1-0.2-0.2-0.3-0.4c-0.1-0.2-0.1-0.3-0.2-0.5c0-0.2-0.1-0.4-0.1-0.6
		c0-0.1,0-0.3,0-0.7c0-0.1,0-0.2,0-0.4s0-0.2,0-0.3c0-0.1,0-0.2,0.1-0.3c0-0.1,0.1-0.2,0.1-0.3s0.1-0.1,0.2-0.2s0.1-0.1,0.2-0.1
		c0.1,0,0.2,0,0.3,0c0.1,0,0.2,0,0.2,0c0.1,0,0.1,0.1,0.2,0.1c0.1,0,0.1,0.1,0.2,0.1c0,0,0.1,0.1,0.2,0.2V14h0.8v5.3h-0.8v-0.3
		c-0.1,0.1-0.2,0.2-0.3,0.3C28.9,19.3,28.8,19.3,28.6,19.3z M28.8,18.7c0.2,0,0.4,0,0.6-0.1v-2.4C29.2,16.1,29,16,28.8,16
		c-0.1,0-0.1,0-0.2,0.1c-0.1,0-0.1,0.1-0.1,0.2c0,0.1,0,0.1-0.1,0.2c0,0.1,0,0.2,0,0.3c0,0.4,0,0.8,0,1.1c0,0.1,0,0.2,0,0.3
		s0,0.2,0.1,0.3c0,0.1,0.1,0.2,0.1,0.2S28.7,18.7,28.8,18.7z"/>
	<path class="st0" d="M31.4,19.3c-0.2,0-0.3-0.1-0.4-0.2c-0.1-0.1-0.2-0.3-0.2-0.4v-3.2h0.8v3c0,0.1,0,0.1,0.1,0.2s0.1,0.1,0.2,0.1
		c0,0,0.1,0,0.1,0c0,0,0.1,0,0.1-0.1c0,0,0.1,0,0.1-0.1c0,0,0.1,0,0.1-0.1c0,0,0.1-0.1,0.1-0.1v-3h0.8v3.8h-0.8v-0.4
		c-0.1,0.1-0.1,0.1-0.2,0.1c0,0-0.1,0.1-0.2,0.1c-0.1,0.1-0.1,0.1-0.2,0.1c-0.1,0-0.1,0-0.2,0.1C31.6,19.3,31.5,19.3,31.4,19.3z"/>
	<path class="st0" d="M34.7,19.3c-0.2,0-0.3,0-0.5-0.1c-0.1-0.1-0.2-0.1-0.3-0.2c-0.1-0.1-0.1-0.2-0.2-0.4s-0.1-0.3-0.1-0.5
		c0-0.2,0-0.3,0-0.5c0-0.2,0-0.3,0-0.5c0-0.2,0-0.4,0-0.5c0-0.2,0.1-0.3,0.1-0.5c0.1-0.2,0.1-0.3,0.2-0.4c0.1-0.1,0.2-0.2,0.3-0.2
		c0.1-0.1,0.3-0.1,0.5-0.1c0.4,0,0.7,0.1,0.9,0.3c0.2,0.2,0.3,0.5,0.3,1v0.1h-0.8v-0.1c0-0.1,0-0.2,0-0.2c0-0.1,0-0.1-0.1-0.2
		c0-0.1-0.1-0.1-0.1-0.2c-0.1,0-0.1-0.1-0.2-0.1c-0.1,0-0.1,0-0.2,0.1c-0.1,0-0.1,0.1-0.1,0.2c0,0.1,0,0.2-0.1,0.3
		c0,0.1,0,0.2,0,0.3c0,0.2,0,0.6,0,1.1c0,0.1,0,0.2,0,0.3c0,0.1,0,0.2,0.1,0.2c0,0.1,0.1,0.1,0.1,0.2c0.1,0,0.1,0.1,0.2,0.1
		c0.1,0,0.1,0,0.2,0c0,0,0.1-0.1,0.1-0.1c0,0,0-0.1,0.1-0.2c0-0.1,0-0.1,0-0.2c0-0.1,0-0.1,0-0.2v-0.1h0.8V18c0,0.2,0,0.4-0.1,0.5
		s-0.1,0.3-0.2,0.4s-0.2,0.2-0.3,0.3S34.9,19.3,34.7,19.3z"/>
	<path class="st0" d="M37,19.3c-0.2,0-0.4-0.1-0.5-0.3c-0.1-0.2-0.2-0.4-0.2-0.6c0-0.2,0-0.4,0.1-0.5s0.1-0.3,0.2-0.4
		c0.1-0.1,0.2-0.2,0.3-0.3c0.2-0.1,0.3-0.2,0.4-0.2c0.1,0,0.2-0.1,0.4-0.2c0,0,0.1,0,0.1,0v-0.3c0-0.2,0-0.3-0.1-0.4
		S37.5,16,37.4,16c-0.1,0-0.2,0-0.3,0.1S37,16.4,37,16.5c0,0,0,0.1,0,0.1h-0.8c0-0.4,0.1-0.7,0.3-0.9s0.5-0.3,0.8-0.3
		c0.4,0,0.6,0.1,0.8,0.3s0.3,0.5,0.3,0.9v1.7c0,0.4,0,0.7,0.1,0.9h-0.8l-0.1-0.6c0,0.1-0.1,0.1-0.1,0.2c0,0-0.1,0.1-0.1,0.2
		c0,0.1-0.1,0.1-0.1,0.1c0,0-0.1,0.1-0.2,0.1C37.1,19.3,37.1,19.3,37,19.3z M37.4,18.7c0.1,0,0.1,0,0.2,0c0.1,0,0.1-0.1,0.1-0.1
		c0,0,0.1-0.1,0.1-0.1c0,0,0,0,0,0v-1c0,0-0.1,0.1-0.2,0.1s-0.1,0.1-0.2,0.1c0,0-0.1,0.1-0.2,0.1c-0.1,0.1-0.1,0.1-0.1,0.1
		c0,0-0.1,0.1-0.1,0.2c0,0.1,0,0.1,0,0.2C37,18.5,37.1,18.7,37.4,18.7z"/>
	<path class="st0" d="M40.1,19.3c-0.3,0-0.5-0.1-0.6-0.2s-0.2-0.4-0.2-0.7V16h-0.4v-0.6h0.4v-1.3H40v1.3h0.6V16H40v2.2
		c0,0.2,0,0.3,0.1,0.3c0,0.1,0.1,0.1,0.3,0.1c0.1,0,0.1,0,0.3,0v0.6C40.4,19.3,40.2,19.3,40.1,19.3z"/>
	<path class="st0" d="M41.2,14.9v-0.8h0.8v0.8H41.2z M41.2,19.3v-3.8h0.8v3.8H41.2z"/>
	<path class="st0" d="M44.6,19c-0.2,0.2-0.5,0.4-0.9,0.4S43,19.2,42.8,19c-0.2-0.2-0.3-0.6-0.3-1v-1.1c0-0.4,0.1-0.8,0.3-1
		c0.2-0.2,0.5-0.4,0.9-0.4s0.7,0.1,0.9,0.4c0.2,0.2,0.3,0.6,0.3,1v1.1C44.8,18.4,44.8,18.7,44.6,19z M43.6,18.7c0,0,0.1,0,0.1,0
		s0.1,0,0.1,0c0,0,0.1,0,0.1-0.1c0,0,0-0.1,0.1-0.1c0,0,0-0.1,0-0.1c0,0,0-0.1,0-0.1c0-0.1,0-0.1,0-0.1s0-0.1,0-0.2v-1.1
		c0-0.1,0-0.1,0-0.2c0,0,0-0.1,0-0.1c0-0.1,0-0.1,0-0.1c0,0,0-0.1,0-0.1c0,0,0-0.1-0.1-0.1c0,0-0.1,0-0.1-0.1c0,0-0.1,0-0.1,0
		s-0.1,0-0.1,0c0,0-0.1,0-0.1,0.1c0,0,0,0.1-0.1,0.1c0,0,0,0.1,0,0.1c0,0,0,0.1,0,0.1c0,0.1,0,0.1,0,0.1c0,0,0,0.1,0,0.2v1.1
		c0,0.1,0,0.1,0,0.2s0,0.1,0,0.1s0,0.1,0,0.1c0,0,0,0.1,0,0.1s0,0.1,0.1,0.1C43.5,18.6,43.5,18.7,43.6,18.7z"/>
	<path class="st0" d="M45.5,19.3v-3.8h0.8v0.4c0.1-0.1,0.2-0.2,0.3-0.2c0.1-0.1,0.2-0.1,0.3-0.2c0.1,0,0.3-0.1,0.4-0.1
		c0.2,0,0.3,0.1,0.4,0.2s0.2,0.3,0.2,0.4v3.2H47v-2.8c0-0.1,0-0.2-0.1-0.3c0-0.1-0.1-0.1-0.2-0.1c-0.1,0-0.1,0-0.2,0
		c-0.1,0-0.1,0.1-0.1,0.1c0,0-0.1,0.1-0.1,0.1v3H45.5z"/>
</g>
<g>
	<path class="st1" d="M9.4,11.8C9.2,11.9,8.9,12,8.6,12s-0.6,0-0.8-0.1c-0.2-0.1-0.4-0.2-0.6-0.4c-0.2-0.2-0.3-0.3-0.4-0.6
		c-0.1-0.2-0.2-0.5-0.2-0.7c0-0.3-0.1-0.6-0.1-0.9V4.6h1v4.7c0,0.2,0,0.4,0,0.6c0,0.2,0,0.3,0.1,0.5s0.1,0.3,0.2,0.4
		C7.9,10.8,8,10.9,8.1,11c0.1,0.1,0.3,0.1,0.5,0.1c0.2,0,0.3,0,0.5-0.1c0.1-0.1,0.2-0.2,0.3-0.3c0.1-0.1,0.1-0.2,0.2-0.4
		c0-0.2,0.1-0.3,0.1-0.5c0-0.2,0-0.3,0-0.6V4.6h1v4.7c0,0.3,0,0.6-0.1,0.9c0,0.3-0.1,0.5-0.2,0.7s-0.2,0.4-0.4,0.6
		C9.9,11.6,9.7,11.8,9.4,11.8z"/>
	<path class="st1" d="M11.6,11.9V4.6h1v4L14,6.7h1l-1.2,1.8l1.2,3.4h-1l-0.8-2.5l-0.5,0.7v1.8H11.6z"/>
	<path class="st1" d="M15.6,11.9V4.6h1v7.3H15.6z"/>
	<path class="st1" d="M18.5,12c-0.3,0-0.5-0.1-0.7-0.4c-0.2-0.3-0.3-0.5-0.3-0.9c0-0.3,0-0.5,0.1-0.7c0.1-0.2,0.2-0.4,0.3-0.5
		c0.1-0.1,0.3-0.3,0.5-0.4c0.2-0.1,0.4-0.2,0.5-0.3c0.1,0,0.3-0.1,0.6-0.2c0,0,0.1,0,0.1,0V8.2c0-0.3,0-0.5-0.1-0.6
		c-0.1-0.1-0.2-0.2-0.4-0.2c-0.2,0-0.3,0.1-0.4,0.2c-0.1,0.1-0.1,0.3-0.1,0.5c0,0,0,0.1,0,0.1h-1c0-0.5,0.1-0.9,0.4-1.2
		c0.3-0.3,0.7-0.4,1.1-0.4c0.5,0,0.9,0.2,1.1,0.5c0.3,0.3,0.4,0.7,0.4,1.2v2.4c0,0.5,0,1,0.1,1.3h-1l-0.1-0.8
		c-0.1,0.1-0.1,0.2-0.1,0.3c0,0.1-0.1,0.1-0.1,0.2c-0.1,0.1-0.1,0.2-0.2,0.2c-0.1,0-0.1,0.1-0.2,0.1C18.7,11.9,18.6,12,18.5,12z
		 M19,11.1c0.1,0,0.1,0,0.2-0.1s0.1-0.1,0.2-0.1c0,0,0.1-0.1,0.1-0.2c0,0,0,0,0,0V9.3c0,0-0.1,0.1-0.2,0.1c-0.1,0.1-0.2,0.1-0.2,0.2
		c-0.1,0-0.1,0.1-0.2,0.2s-0.1,0.1-0.2,0.2s-0.1,0.1-0.1,0.2c0,0.1-0.1,0.2-0.1,0.3C18.5,10.9,18.6,11.1,19,11.1z"/>
	<path class="st1" d="M21.4,11.9V6.7h1v0.7c0.1-0.2,0.3-0.4,0.5-0.5c0.2-0.2,0.4-0.2,0.7-0.2c0,0,0.1,0,0.2,0v1.2
		c-0.2-0.1-0.4-0.1-0.6-0.1c-0.2,0-0.4,0.1-0.5,0.2s-0.2,0.3-0.2,0.5v3.5H21.4z"/>
	<path class="st1" d="M24.3,5.9v-1h1v1H24.3z M24.3,11.9V6.7h1v5.2H24.3z"/>
	<path class="st1" d="M27.8,12c-0.4,0-0.7-0.1-0.9-0.3c-0.2-0.2-0.3-0.5-0.3-1V7.4h-0.5V6.7h0.5V4.8h1v1.8h0.8v0.8h-0.8v3
		c0,0.2,0,0.4,0.1,0.5c0.1,0.1,0.2,0.1,0.3,0.1c0.1,0,0.2,0,0.4,0v0.8C28.2,11.9,28,12,27.8,12z"/>
	<path class="st1" d="M29.1,13.2v-0.8c0.2,0,0.4,0,0.5,0c0.1,0,0.2-0.1,0.3-0.1c0.1-0.1,0.1-0.1,0.1-0.2c0-0.1,0-0.2,0-0.3l-1.2-5h1
		c0.4,2.2,0.6,3.5,0.7,3.7c0.1-0.4,0.1-0.8,0.2-1.2s0.2-0.9,0.2-1.3c0.1-0.5,0.2-0.9,0.2-1.1h1l-1.3,5.5c-0.1,0.4-0.3,0.6-0.6,0.8
		s-0.7,0.2-1.2,0.2H29.1z"/>
</g>
</svg>
